<svg width="204" height="33" viewBox="0 0 204 33" fill="none" xmlns="http://www.w3.org/2000/svg">
<path d="M138.498 2H136.965H135.773L123 32.8255H124.192H125.725H126.747L139.52 2H138.498Z" fill="#00FFC2"/>
<path d="M201.621 10.9941C202.472 10.9941 203.153 11.6754 203.153 12.5269C203.153 13.3784 202.472 14.0597 201.621 14.0597C200.769 14.0597 200.088 13.3784 200.088 12.5269C200.088 11.6754 200.769 10.9941 201.621 10.9941ZM201.621 13.8894C202.302 13.8894 202.813 13.3784 202.813 12.5269C202.813 11.8457 202.302 11.1644 201.621 11.1644C200.939 11.1644 200.428 11.6754 200.428 12.5269C200.428 13.3784 200.939 13.8894 201.621 13.8894ZM201.45 13.3784H201.11V11.6754H201.791C202.132 11.6754 202.302 11.8457 202.302 12.1863C202.302 12.3566 202.132 12.6972 201.961 12.6972L202.302 13.3784H201.961L201.621 12.6972H201.45V13.3784ZM201.621 12.5269C201.791 12.5269 201.961 12.3566 201.961 12.3566C201.961 12.1863 201.791 12.016 201.621 12.016H201.45V12.5269H201.621Z" fill="white"/>
<path d="M56.1881 19.8498L52.782 19.1685C51.2492 18.8279 50.3977 17.9764 50.3977 16.6139C50.3977 15.2515 51.7601 13.889 53.8038 13.889C57.0397 13.889 57.8912 16.2733 58.0615 17.2952L61.6379 15.9327C61.2973 14.0593 59.4239 10.4829 53.8038 10.4829C49.7165 10.4829 46.4806 13.5484 46.4806 16.9546C46.4806 19.8498 48.354 22.0638 51.5898 22.745L55.1663 23.5965C56.8693 23.9371 57.8912 24.959 57.8912 26.3214C57.8912 27.8542 56.699 29.0463 54.3147 29.0463C51.4195 29.0463 49.7165 27.3433 49.5462 25.1293L45.9697 26.4917C46.3103 28.876 48.6946 32.4525 54.3147 32.4525C59.4239 32.4525 61.8082 29.0463 61.8082 26.1511C61.8082 22.9153 59.9349 20.7013 56.1881 19.8498Z" fill="white"/>
<path d="M117.157 31.771H121.074V28.0243V1.28613H117.157V14.0591C116.476 12.3561 114.432 10.653 110.856 10.653C105.066 10.653 101.148 15.5919 101.148 21.3823C101.148 27.5133 104.895 32.2819 110.856 32.2819C114.092 32.2819 116.306 30.5789 117.157 28.5352V31.771ZM111.367 28.7055C107.45 28.7055 105.406 25.64 105.406 21.3823C105.406 17.1246 107.79 14.2294 111.537 14.2294C115.284 14.2294 117.498 17.1246 117.498 21.3823C117.157 25.4697 114.943 28.7055 111.367 28.7055Z" fill="white"/>
<path d="M145.428 10.4829C139.297 10.4829 134.869 15.0812 134.869 21.3825C134.869 27.6839 139.297 32.2821 145.428 32.2821C151.559 32.2821 155.987 27.6839 155.987 21.3825C155.987 15.2515 151.559 10.4829 145.428 10.4829ZM145.428 28.7057C142.022 28.7057 138.957 26.1511 138.957 21.3825C138.957 16.6139 142.022 14.0593 145.428 14.0593C148.834 14.0593 151.9 16.6139 151.9 21.3825C151.729 26.1511 148.834 28.7057 145.428 28.7057Z" fill="white"/>
<path d="M97.5726 27.8537V11.1636H93.4853V23.596C93.4853 26.6615 91.7822 28.8755 88.5464 28.8755C85.1403 28.8755 83.9481 26.3209 83.9481 23.596V11.1636H80.0311H71.686V4.8623H67.9393H67.5987V9.63089V11.1636H63.6816V14.7401H67.5987V25.9803C67.5987 29.7271 69.8127 31.7707 73.3891 31.7707C74.7516 31.7707 75.7734 31.4301 76.114 31.4301V28.024C75.7734 28.024 75.0922 28.1943 74.5813 28.1943C72.5376 28.1943 71.686 27.1725 71.686 25.2991V14.7401H80.0311V24.1069C80.0311 28.7052 82.9263 32.2817 87.6949 32.2817C90.0792 32.2817 92.6338 31.2598 93.8259 29.2161V31.7707H97.5726V27.8537Z" fill="white"/>
<path d="M13.769 32.118H8.319V11.5109H13.769V14.0655C14.961 12.0219 17.515 11 19.729 11C24.839 11 27.053 14.5765 27.053 19.1747V32.118H21.603V20.1966C21.603 17.9826 20.411 16.1092 17.856 16.1092C15.472 16.1092 14.109 17.9826 14.109 20.3669V32.118H13.769Z" fill="white"/>
<path d="M4.917 11.5371H1V31.9738H4.917V11.5371Z" fill="white"/>
<mask id="mask0" mask-type="alpha" maskUnits="userSpaceOnUse" x="28" y="10" width="18" height="23">
<path d="M42.1003 29.9102C40.694 31.5638 38.6302 32.3906 35.9088 32.3906C33.6562 32.3906 31.9375 31.7396 30.7526 30.4375C29.5807 29.1224 28.9883 27.1823 28.9753 24.6172V10.8672H32.5885V24.5195C32.5885 27.7227 33.8906 29.3242 36.4948 29.3242C39.2552 29.3242 41.0911 28.2956 42.0026 26.2383V10.8672H45.6159V32H42.1784L42.1003 29.9102Z" fill="black"/>
</mask>
<g mask="url(#mask0)">
<path d="M45.319 11H27.319V33H45.319V11Z" fill="white"/>
</g>
<path d="M2.725 7.44981C4.229 7.44981 5.449 6.22983 5.449 4.72491C5.449 3.21998 4.229 2 2.725 2C1.22 2 0 3.21998 0 4.72491C0 6.22983 1.22 7.44981 2.725 7.44981Z" fill="white"/>
<path d="M161.45 31.6336H156V11.0265H161.45V13.5811C162.642 11.5375 165.196 10.5156 167.41 10.5156C172.52 10.5156 174.734 14.0921 174.734 18.6903V31.6336H169.284V19.7122C169.284 17.4982 168.092 15.6248 165.537 15.6248C163.153 15.6248 161.79 17.4982 161.79 19.8825V31.6336H161.45Z" fill="white"/>
<path d="M190.913 19.7119L199.258 31.6333H192.446L187.166 23.7992L184.782 26.1835V31.6333H179.332V2H184.782V18.69L191.935 11.0262H199.087L190.913 19.7119Z" fill="white"/>
</svg>
