<svg width="204" height="32" viewBox="0 0 204 32" fill="none" xmlns="http://www.w3.org/2000/svg">
<mask id="mask0" mask-type="alpha" maskUnits="userSpaceOnUse" x="179" y="9" width="17" height="23">
<path d="M192.224 28.9102C190.818 30.5638 188.754 31.3906 186.033 31.3906C183.78 31.3906 182.061 30.7396 180.877 29.4375C179.705 28.1224 179.112 26.1823 179.099 23.6172V9.86719H182.712V23.5195C182.712 26.7227 184.015 28.3242 186.619 28.3242C189.379 28.3242 191.215 27.2956 192.127 25.2383V9.86719H195.74V31H192.302L192.224 28.9102Z" fill="black"/>
</mask>
<g mask="url(#mask0)">
<path d="M198.498 10H177.604V32H198.498V10Z" fill="white"/>
</g>
<path d="M202.455 9C203.313 9 204 9.66672 204 10.5C204 11.3333 203.313 12 202.455 12C201.596 12 200.909 11.3333 200.909 10.5C200.909 9.66672 201.596 9 202.455 9ZM202.455 11.8333C203.142 11.8333 203.657 11.3333 203.657 10.5C203.657 9.83338 203.142 9.16666 202.455 9.16666C201.767 9.16666 201.252 9.66672 201.252 10.5C201.252 11.3333 201.767 11.8333 202.455 11.8333ZM202.283 11.3333H201.94V9.66672H202.626C202.97 9.66672 203.142 9.83338 203.142 10.1667C203.142 10.3333 202.97 10.6667 202.798 10.6667L203.142 11.3333H202.798L202.455 10.6667H202.283V11.3333ZM202.455 10.5C202.626 10.5 202.798 10.3333 202.798 10.3333C202.798 10.1667 202.626 10 202.455 10H202.283V10.5H202.455Z" fill="white"/>
<path d="M149.213 0H147.397H145.984L130.848 31H132.261H134.078H135.289L150.424 0H149.213Z" fill="#00FFC2"/>
<path d="M158.779 31H152.485V10.508H158.779V13.0484C160.156 11.0162 163.106 10 165.663 10C171.564 10 174.121 13.5565 174.121 18.129V31H167.827V19.1452C167.827 16.9436 166.45 15.0807 163.499 15.0807C160.746 15.0807 159.172 16.9436 159.172 19.3146V31H158.779Z" fill="white"/>
<path d="M11.9648 19.3799L7.97659 18.6976C6.18182 18.3565 5.18479 17.5039 5.18479 16.1395C5.18479 14.7752 6.78004 13.4108 9.17302 13.4108C12.962 13.4108 13.959 15.7984 14.1584 16.8217L18.346 15.4573C17.9472 13.5813 15.7537 10 9.17302 10C4.38717 10 0.598218 13.0697 0.598218 16.4807C0.598218 19.3799 2.7918 21.5969 6.58063 22.2791L10.7684 23.1317C12.7624 23.4728 13.959 24.4961 13.959 25.8604C13.959 27.3953 12.563 28.5891 9.77124 28.5891C6.38122 28.5891 4.38716 26.8837 4.18776 24.6667L0 26.031C0.398812 28.4186 3.19061 32 9.77124 32C15.7537 32 18.5455 28.5891 18.5455 25.6899C18.5455 22.4496 16.352 20.2325 11.9648 19.3799Z" fill="white"/>
<path d="M82.9174 30.489H87.5758V26.7418V0H82.9174V12.7747C82.1072 11.0715 79.6767 9.36815 75.4235 9.36815C68.5372 9.36815 63.8788 14.3077 63.8788 20.0989C63.8788 26.2307 68.3347 31 75.4235 31C79.2717 31 81.9047 29.2968 82.9174 27.2528V30.489ZM76.0311 27.4231C71.3728 27.4231 68.9423 24.3572 68.9423 20.0989C68.9423 15.8406 71.7778 12.945 76.2336 12.945C80.6895 12.945 83.3225 15.8406 83.3225 20.0989C82.9174 24.1869 80.2844 27.4231 76.0311 27.4231Z" fill="white"/>
<path d="M97.8788 10H93.7576V31H97.8788V10Z" fill="white"/>
<path d="M115.394 10C108.215 10 103.03 14.4297 103.03 20.5C103.03 26.5704 108.215 31 115.394 31C122.573 31 127.758 26.5704 127.758 20.5C127.758 14.5938 122.573 10 115.394 10ZM115.394 27.5547C111.406 27.5547 107.817 25.0938 107.817 20.5C107.817 15.9062 111.406 13.4453 115.394 13.4453C119.382 13.4453 122.972 15.9062 122.972 20.5C122.772 25.0938 119.382 27.5547 115.394 27.5547Z" fill="white"/>
<path d="M59.7576 26.6397V10.2049H55.0358V22.4472C55.0358 25.4658 53.0684 27.6459 49.3303 27.6459C45.3956 27.6459 44.0183 25.1304 44.0183 22.4472V10.2049H39.4933H29.8529V4H25.5246H25.1312V8.69565V10.2049H20.6061V13.7267H25.1312V24.795C25.1312 28.4845 27.6888 30.4968 31.8203 30.4968C33.3943 30.4968 34.5747 30.1614 34.9682 30.1614V26.8074C34.5747 26.8074 33.7878 26.9751 33.1976 26.9751C30.8367 26.9751 29.8529 25.969 29.8529 24.1242V13.7267H39.4933V22.9502C39.4933 27.4782 42.8379 31 48.3467 31C51.1011 31 54.0522 29.9937 55.4293 27.9813V30.4968H59.7576V26.6397Z" fill="white"/>
</svg>
