<?xml version="1.0" encoding="utf-8"?>
<!-- Generator: Adobe Illustrator 25.0.1, SVG Export Plug-In . SVG Version: 6.00 Build 0)  -->
<svg version="1.1" xmlns="http://www.w3.org/2000/svg" xmlns:xlink="http://www.w3.org/1999/xlink" x="0px" y="0px"
	 viewBox="0 0 249.6 217.8" style="enable-background:new 0 0 249.6 217.8;" xml:space="preserve">
<style type="text/css">
	.Voûte _x002D__x0020_Vert{fill:url(#SVGID_1_);stroke:#FFFFFF;stroke-width:0.25;stroke-miterlimit:1;}
	.st0{display:none;}
	.st1{fill:url(#SVGID_2_);}
	.st2{fill:url(#SVGID_3_);}
	.st3{fill:#1A171B;}
	.st4{fill:#333333;}
	.st5{fill:#FFFFFF;}
	.st6{fill:#19161A;}
</style>
<linearGradient id="SVGID_1_" gradientUnits="userSpaceOnUse" x1="-167.0703" y1="768.8066" x2="-166.3632" y2="768.0995">
	<stop  offset="0" style="stop-color:#249E2E"/>
	<stop  offset="0.9831" style="stop-color:#1C371D"/>
</linearGradient>
<g id="Calque_1" class="st0">
	
		<image style="display:inline;overflow:visible;" width="131" height="131" xlink:href="../../../Volumes/GoogleDrive/Mon%20disque/Technique/Pie%c3%8c%c2%80ces%20dossier/CLIENTS/MINIATURES%20LYON/V1/maquettes/modele_logo.html"  transform="matrix(3.0298 0 0 3.0298 -68.0125 148.863)">
	</image>
</g>
<g id="Calque_3">
</g>
<g id="ROUES">
</g>
<g id="Calque_4">
	<g>
		<g>
			<linearGradient id="SVGID_2_" gradientUnits="userSpaceOnUse" x1="0.9878" y1="63.3323" x2="133.1895" y2="63.3323">
				<stop  offset="0" style="stop-color:#EB741D"/>
				<stop  offset="1" style="stop-color:#FFD700"/>
			</linearGradient>
			<path class="st1" d="M1,120.1c0,0,14.8-112.4,132.2-115.9l-6.7,55.8c0,0-52-7.6-75.6,62.3L1,120.1z"/>
		</g>
		<g>
			<linearGradient id="SVGID_3_" gradientUnits="userSpaceOnUse" x1="106.0039" y1="59.897" x2="249.5899" y2="59.897">
				<stop  offset="0" style="stop-color:#EB741D"/>
				<stop  offset="1" style="stop-color:#FFD700"/>
			</linearGradient>
			<path class="st2" d="M143,118.7l-37,1.1l10.3-59.7c0,0,65-69.9,133.2-59L232,116.9l-34.4-0.9l7.5-55.3
				C205.2,60.8,162.9,64,143,118.7z"/>
		</g>
		<g>
			<path class="st3" d="M31.9,187.6h-4.4v-18.3l-8.2,16.3c-0.8,1.6-1.9,2.4-3.3,2.4c-0.9,0-1.6-0.2-2.1-0.7c-0.3-0.3-0.7-0.8-1-1.6
				l-8.4-16.5v18.3H0v-20.3c0-0.9,0.3-1.6,1-2.2s1.7-0.9,2.9-0.9c1.9,0,3.2,0.7,3.9,2.2l8.1,16.5l8.2-16.5c0.7-1.5,2-2.2,3.8-2.2
				c1.3,0,2.3,0.3,2.9,0.9c0.7,0.6,1,1.4,1,2.3V187.6z"/>
			<path class="st3" d="M41.6,187.5h-4.6v-23.4h4.6V187.5z"/>
			<path class="st3" d="M69.6,184.7c0,0.9-0.3,1.6-1,2.2c-0.7,0.7-1.6,1-2.8,1c-1.1,0-2-0.2-2.6-0.7c-0.3-0.2-0.7-0.8-1.4-1.9
				L51,168.8v18.7h-4.4v-19.9c0-2.3,1.3-3.4,3.8-3.4c1.1,0,2,0.2,2.6,0.7c0.3,0.3,0.8,0.9,1.4,1.9l10.7,16.4v-18.8h4.4V184.7z"/>
			<path class="st3" d="M79.3,187.5h-4.6v-23.4h4.6V187.5z"/>
			<path class="st3" d="M109.7,187.5h-5l-2.8-5.7H89.4l-2.8,5.7h-5L92,166.3c0.7-1.4,1.9-2.1,3.7-2.1c1.8,0,3,0.7,3.7,2.1
				L109.7,187.5z M100.5,178.6l-5.1-10.4l-4.6,10.4H100.5z"/>
			<path class="st3" d="M128,167.5h-7.9v20h-4.6v-20h-7.9v-3.4H128V167.5z"/>
			<path class="st3" d="M153.7,181.6c0,1.1-0.1,1.9-0.3,2.4c-0.3,0.8-0.9,1.5-1.7,2.1c-0.8,0.6-1.7,1-2.7,1.2
				c-0.6,0.1-1.7,0.2-3.1,0.2h-7.2c-1.4,0-2.4-0.1-3.1-0.2c-1-0.2-1.9-0.6-2.7-1.2c-0.9-0.7-1.5-1.4-1.8-2.1
				c-0.2-0.5-0.3-1.3-0.3-2.4v-17.4h4.6V181c0,1.2,0.3,2,1,2.5c0.6,0.4,1.8,0.6,3.5,0.6h4.8c1.6,0,2.8-0.2,3.4-0.6
				c0.7-0.4,1-1.2,1-2.4v-16.9h4.6V181.6z"/>
			<path class="st3" d="M181.5,187.5h-5.8l-11.3-8.9c-0.4-0.3-0.6-0.8-0.6-1.5c0-1.3,1-2,2.9-2l6.8,0c2.3,0,3.4-0.8,3.4-2.3V170
				c0-1.6-1.3-2.4-3.8-2.4h-9.6v19.9h-4.6v-23.3h15.6c4.7,0,7.1,1.7,7.1,5v4c0,1.4-0.6,2.6-1.8,3.5c-1.2,0.9-2.8,1.3-4.8,1.3h-5.3
				L181.5,187.5z"/>
			<path class="st3" d="M205.6,177.5h-15.1v3.9c0,1.7,1.4,2.6,4.1,2.6h12v3.4h-13.2c-2.3,0-4.1-0.4-5.3-1.2
				c-1.4-0.9-2.1-2.1-2.1-3.8v-13.1c0-1.6,0.6-2.9,1.9-3.8c1.2-0.9,3-1.4,5.2-1.4h13.7v3.4h-12c-2.7,0-4,0.9-4,2.6v4h15.1V177.5z"/>
			<path class="st3" d="M232.5,167.6h-11.9c-1.9,0-3.2,0.4-3.6,1.1c-0.3,0.4-0.4,1.4-0.4,3c0,0.8,0.4,1.4,1.1,1.9
				c0.6,0.4,1.6,0.5,3,0.5h4.9c2.1,0,3.8,0.4,5,1.3c1.3,0.8,1.9,2,1.9,3.5v3.7c0,1.6-0.6,2.8-1.9,3.7c-1.3,0.9-3.1,1.3-5.3,1.3
				h-13.3v-3.4h11.9c2,0,3.2-0.4,3.7-1.2c0.2-0.4,0.3-1.5,0.3-3.1c0-1.6-1.3-2.4-3.9-2.4H219c-2,0-3.7-0.4-5-1.2
				c-1.4-0.9-2.1-2-2.1-3.5v-3.6c0-1.6,0.8-2.9,2.3-3.9c1.1-0.7,2.7-1,4.7-1h13.5V167.6z"/>
			<path class="st4" d="M89.1,217.5H76.8c-2.7,0-4.8-0.4-6.2-1.2c-1.4-0.8-2.2-2.3-2.2-4.3v-17.7H73v16.9c0,1.2,0.4,2,1.1,2.5
				c0.6,0.4,1.8,0.5,3.7,0.5h11.3V217.5z"/>
			<path class="st4" d="M112,194.2L101.3,208v9.5h-4.6V208l-10.6-13.8h5.3l7.6,10.1l7.8-10.1H112z"/>
			<path class="st4" d="M136.4,212.2c0,3.5-2.5,5.3-7.6,5.3h-7c-2.5,0-4.3-0.4-5.5-1.2c-1.5-0.9-2.2-2.3-2.2-4.1v-12.7
				c0-1.8,0.7-3.1,2.2-4.1c1.2-0.8,3-1.2,5.5-1.2h7.1c5,0,7.6,1.8,7.6,5.3V212.2z M131.9,211.3v-10.9c0-1.1-0.3-1.8-1-2.3
				c-0.6-0.4-1.7-0.6-3.1-0.6h-4.9c-1.5,0-2.6,0.2-3.2,0.6c-0.6,0.4-1,1.2-1,2.3v10.8c0,1,0.3,1.7,1,2.2c0.6,0.4,1.6,0.6,3.1,0.6
				h4.9c1.4,0,2.5-0.2,3.1-0.6C131.6,213.1,131.9,212.3,131.9,211.3z"/>
			<path class="st4" d="M164.5,214.7c0,0.9-0.3,1.6-1,2.2c-0.7,0.7-1.6,1-2.8,1c-1.1,0-2-0.2-2.6-0.7c-0.3-0.2-0.7-0.8-1.4-1.9
				L146,198.8v18.7h-4.4v-19.9c0-2.3,1.3-3.4,3.8-3.4c1.1,0,2,0.2,2.6,0.7c0.3,0.3,0.8,0.9,1.4,1.9l10.7,16.4v-18.8h4.4V214.7z"/>
		</g>
		<g>
			<path class="st3" d="M92.9,121.5c-1.9,15.8-17.5,26.9-35,24.8c-17.4-2.1-30-16.6-28.1-32.4c1.9-15.8,17.5-26.9,35-24.8
				C82.2,91.2,94.8,105.7,92.9,121.5z"/>
		</g>
		<g>
			<path class="st3" d="M216.6,121.4c-1.9,15.8-17.5,26.9-35,24.8c-17.4-2.1-30-16.6-28.1-32.4c1.9-15.8,17.5-26.9,35-24.8
				C205.9,91.1,218.5,105.6,216.6,121.4z"/>
		</g>
		<path class="st5" d="M65.1,117.7c0,2.1-1.7,3.8-3.8,3.8c-2.1,0-3.8-1.7-3.8-3.8s1.7-3.8,3.8-3.8C63.5,113.9,65.1,115.6,65.1,117.7
			z"/>
		<circle class="st5" cx="185" cy="117.6" r="3.8"/>
	</g>
</g>
</svg>
