<?xml version="1.0" encoding="utf-8"?>
<!-- Generator: Adobe Illustrator 25.0.1, SVG Export Plug-In . SVG Version: 6.00 Build 0)  -->
<svg version="1.1" xmlns="http://www.w3.org/2000/svg" xmlns:xlink="http://www.w3.org/1999/xlink" x="0px" y="0px"
	 viewBox="0 0 250.2 218.3" style="enable-background:new 0 0 250.2 218.3;" xml:space="preserve">
<style type="text/css">
	.Voûte _x002D__x0020_Vert{fill:url(#SVGID_1_);stroke:#FFFFFF;stroke-width:0.25;stroke-miterlimit:1;}
	.st0{display:none;}
	.st1{fill:url(#SVGID_2_);}
	.st2{fill:url(#SVGID_3_);}
	.st3{fill:#1A171B;}
	.st4{fill:#333333;}
	.st5{fill:#FFFFFF;}
	.st6{fill:#19161A;}
</style>
<linearGradient id="SVGID_1_" gradientUnits="userSpaceOnUse" x1="332.5418" y1="773.0844" x2="333.2489" y2="772.3773">
	<stop  offset="0" style="stop-color:#249E2E"/>
	<stop  offset="0.9831" style="stop-color:#1C371D"/>
</linearGradient>
<g id="Calque_1" class="st0">
</g>
<g id="Calque_3">
</g>
<g id="ROUES">
</g>
<g id="Calque_4">
	<g>
		<g>
			<path class="st3" d="M31.9,188.1h-4.4v-18.3l-8.2,16.3c-0.8,1.6-1.9,2.4-3.3,2.4c-0.9,0-1.6-0.2-2.1-0.7c-0.3-0.3-0.7-0.8-1-1.6
				l-8.4-16.5v18.3H0v-20.3c0-0.9,0.3-1.6,1-2.2c0.7-0.6,1.7-0.9,2.9-0.9c1.9,0,3.2,0.7,3.9,2.2l8.1,16.5l8.2-16.5
				c0.7-1.5,2-2.2,3.8-2.2c1.3,0,2.3,0.3,2.9,0.9s1,1.4,1,2.3V188.1z"/>
			<path class="st3" d="M41.6,188h-4.6v-23.4h4.6V188z"/>
			<path class="st3" d="M69.6,185.2c0,0.9-0.3,1.6-1,2.2c-0.7,0.7-1.6,1-2.8,1c-1.1,0-2-0.2-2.6-0.7c-0.3-0.2-0.7-0.8-1.4-1.9
				L51,169.3V188h-4.4v-19.9c0-2.3,1.3-3.4,3.8-3.4c1.1,0,2,0.2,2.6,0.7c0.3,0.3,0.8,0.9,1.4,1.9l10.7,16.4v-18.8h4.4V185.2z"/>
			<path class="st3" d="M79.3,188h-4.6v-23.4h4.6V188z"/>
			<path class="st3" d="M109.7,188h-5l-2.8-5.7H89.4l-2.8,5.7h-5L92,166.8c0.7-1.4,1.9-2.1,3.7-2.1c1.8,0,3,0.7,3.7,2.1L109.7,188z
				 M100.5,179.1l-5.1-10.4l-4.6,10.4H100.5z"/>
			<path class="st3" d="M128,168h-7.9v20h-4.6v-20h-7.9v-3.4H128V168z"/>
			<path class="st3" d="M153.7,182.1c0,1.1-0.1,1.9-0.3,2.4c-0.3,0.8-0.9,1.5-1.7,2.1c-0.8,0.6-1.7,1-2.7,1.2
				c-0.6,0.1-1.7,0.2-3.1,0.2h-7.2c-1.4,0-2.4-0.1-3.1-0.2c-1-0.2-1.9-0.6-2.7-1.2c-0.9-0.7-1.5-1.4-1.8-2.1
				c-0.2-0.5-0.3-1.3-0.3-2.4v-17.4h4.6v16.8c0,1.2,0.3,2,1,2.5c0.6,0.4,1.8,0.6,3.5,0.6h4.8c1.6,0,2.8-0.2,3.4-0.6s1-1.2,1-2.4
				v-16.9h4.6V182.1z"/>
			<path class="st3" d="M181.5,188h-5.8l-11.3-8.9c-0.4-0.3-0.6-0.8-0.6-1.5c0-1.3,1-2,2.9-2l6.8,0c2.3,0,3.4-0.8,3.4-2.3v-2.7
				c0-1.6-1.3-2.4-3.8-2.4h-9.6V188h-4.6v-23.3h15.6c4.7,0,7.1,1.7,7.1,5v4c0,1.4-0.6,2.6-1.8,3.5c-1.2,0.9-2.8,1.3-4.8,1.3h-5.3
				L181.5,188z"/>
			<path class="st3" d="M205.6,178h-15.1v3.9c0,1.7,1.4,2.6,4.1,2.6h12v3.4h-13.2c-2.3,0-4.1-0.4-5.3-1.2c-1.4-0.9-2.1-2.1-2.1-3.8
				v-13.1c0-1.6,0.6-2.9,1.9-3.8c1.2-0.9,3-1.4,5.2-1.4h13.7v3.4h-12c-2.7,0-4,0.9-4,2.6v4h15.1V178z"/>
			<path class="st3" d="M232.5,168.1h-11.9c-1.9,0-3.2,0.4-3.6,1.1c-0.3,0.4-0.4,1.4-0.4,3c0,0.8,0.4,1.4,1.1,1.9
				c0.6,0.4,1.6,0.5,3,0.5h4.9c2.1,0,3.8,0.4,5,1.3c1.3,0.8,1.9,2,1.9,3.5v3.7c0,1.6-0.6,2.8-1.9,3.7c-1.3,0.9-3.1,1.3-5.3,1.3
				h-13.3v-3.4h11.9c2,0,3.2-0.4,3.7-1.2c0.2-0.4,0.3-1.5,0.3-3.1c0-1.6-1.3-2.4-3.9-2.4H219c-2,0-3.7-0.4-5-1.2
				c-1.4-0.9-2.1-2-2.1-3.5v-3.6c0-1.6,0.8-2.9,2.3-3.9c1.1-0.7,2.7-1,4.7-1h13.5V168.1z"/>
			<path class="st4" d="M89.1,218H76.8c-2.7,0-4.8-0.4-6.2-1.2s-2.2-2.3-2.2-4.3v-17.7H73v16.9c0,1.2,0.4,2,1.1,2.5
				c0.6,0.4,1.8,0.5,3.7,0.5h11.3V218z"/>
			<path class="st4" d="M112,194.7l-10.7,13.8v9.5h-4.6v-9.5l-10.6-13.8h5.3l7.6,10.1l7.8-10.1H112z"/>
			<path class="st4" d="M136.4,212.7c0,3.5-2.5,5.3-7.6,5.3h-7c-2.5,0-4.3-0.4-5.5-1.2c-1.5-0.9-2.2-2.3-2.2-4.1V200
				c0-1.8,0.7-3.1,2.2-4.1c1.2-0.8,3-1.2,5.5-1.2h7.1c5,0,7.6,1.8,7.6,5.3V212.7z M131.9,211.8V201c0-1.1-0.3-1.8-1-2.3
				c-0.6-0.4-1.7-0.6-3.1-0.6h-4.9c-1.5,0-2.6,0.2-3.2,0.6c-0.6,0.4-1,1.2-1,2.3v10.8c0,1,0.3,1.7,1,2.2c0.6,0.4,1.6,0.6,3.1,0.6
				h4.9c1.4,0,2.5-0.2,3.1-0.6S131.9,212.8,131.9,211.8z"/>
			<path class="st4" d="M164.5,215.2c0,0.9-0.3,1.6-1,2.2c-0.7,0.7-1.6,1-2.8,1c-1.1,0-2-0.2-2.6-0.7c-0.3-0.2-0.7-0.8-1.4-1.9
				L146,199.3V218h-4.4v-19.9c0-2.3,1.3-3.4,3.8-3.4c1.1,0,2,0.2,2.6,0.7c0.3,0.3,0.8,0.9,1.4,1.9l10.7,16.4v-18.8h4.4V215.2z"/>
		</g>
		<g>
			<path class="st6" d="M30.6,122.5l-30.2-1.4l0.1-0.5c0-0.3,3.9-28.5,22.2-56.8c10.7-16.6,24.2-30,40.1-39.8
				c19.9-12.2,43.6-18.8,70.4-19.6l0.6,0l-5.5,45.7l-0.1,0.1c-7.2,6.4-11.4,10.9-11.4,10.9l-0.1,0.1l-0.2,0
				c-10.8,1.1-31.6,6.3-48.5,29.2l-0.2,0.3l-0.3-0.1c-1-0.2-1.8-0.3-2.7-0.4C47.6,88,32.2,99,30.3,114.5c-0.3,2.5-0.2,4.9,0.2,7.4
				L30.6,122.5z M1.6,120.1l27.9,1.3c-0.3-2.4-0.4-4.7-0.1-7.1c1.9-16,17.8-27.4,35.5-25.3c0.8,0.1,1.6,0.2,2.4,0.4
				c17.1-22.9,37.9-28.2,48.9-29.3c1.4-1.7,7.2-7.2,11.2-10.7l5.3-44.2c-26.4,0.9-49.8,7.4-69.3,19.5c-15.8,9.7-29.2,23-39.8,39.5
				C6.8,90.2,2.2,116.1,1.6,120.1z"/>
		</g>
		<g>
			<path class="st6" d="M105.4,120.8l10.4-60.3l1,0.2l-10.2,59l36-1.1c19.8-54.1,62.1-57.9,62.5-57.9l0.6,0l-4.4,32.4
				c9.2,5.1,15.1,13.8,15.8,23.4l14.5,0.4L249,2.1c-22-3.4-45.9,1.2-71.1,13.8c-21.2,10.5-38.8,24.4-49.8,34.2l-0.7-0.7
				c11.1-9.8,28.7-23.8,50-34.3c25.6-12.7,49.9-17.4,72.2-13.8l0.5,0.1l-17.7,116.7l-16.2-0.4l0-0.5c-0.6-9.6-6.5-18.3-15.7-23.2
				l-0.3-0.2l4.3-31.8c-5.3,0.7-42.9,7.4-61.1,57.5l-0.1,0.3l-0.3,0L105.4,120.8z"/>
		</g>
		<g>
			<g>
				<path class="st6" d="M126.9,61.2l-0.5-0.1c0,0-0.5-0.1-1.5-0.1l0.1-1c0.4,0,0.8,0.1,1,0.1l0.1-1l1,0.1L126.9,61.2z"/>
			</g>
			<g>
				
					<rect x="125.8" y="54.6" transform="matrix(0.1191 -0.9929 0.9929 0.1191 57.2679 174.8219)" class="st6" width="2.7" height="1"/>
			</g>
			<g>
				<polygon class="st6" points="128.1,51.2 127.1,51.1 127.2,50.9 127,51.1 126.4,50.3 128.5,48.4 				"/>
			</g>
			<g>
				<path class="st6" d="M119.5,58.1l-0.7-0.7c0.5-0.5,1.2-1.1,1.8-1.8l0.7,0.7C120.7,57,120.1,57.6,119.5,58.1z M123.2,54.5
					l-0.7-0.7c0.6-0.6,1.2-1.1,1.9-1.8l0.7,0.7C124.5,53.4,123.8,54,123.2,54.5z"/>
			</g>
			<g>
				<path class="st6" d="M115.8,61.2v-0.6c0-0.2,0-0.2,1.2-1.4l0.7,0.7c0,0-0.1,0.1-0.1,0.1c0.1,0,0.1,0,0.2,0l0.1,1
					c-0.5,0-1,0.1-1.5,0.1L115.8,61.2z"/>
			</g>
			<g>
				<path class="st6" d="M120.2,60.9l0-1c0.6,0,1.2,0,1.8,0l0.6,0l0,1l-0.6,0C121.4,60.9,120.9,60.9,120.2,60.9z"/>
			</g>
		</g>
		<g>
			<path class="st6" d="M62.2,147.5c-1.4,0-2.9-0.1-4.3-0.3c-14.5-1.7-26.1-12.1-28.4-25.2l1-0.2c2.2,12.7,13.5,22.7,27.5,24.4
				c8.3,1,16.5-1,23-5.6c6.5-4.6,10.6-11.3,11.5-18.8c1.7-14.5-9.3-28.2-25-31.4l0.2-1C83.9,92.8,95.2,107,93.4,122
				c-0.9,7.8-5.1,14.7-11.9,19.5C76,145.4,69.2,147.5,62.2,147.5z"/>
		</g>
		<g>
			<g>
				<path class="st6" d="M31.5,122.5l-1.9-0.1l-0.1-0.4c-0.1-0.5-0.2-1-0.2-1.5l1-0.1c0,0.4,0.1,0.7,0.1,1.1l1.1,0.1L31.5,122.5z"/>
			</g>
			<g>
				<path class="st6" d="M46.8,123.2l-2.6-0.1l0-1l2.6,0.1L46.8,123.2z M41.7,123l-2.6-0.1l0-1l2.6,0.1L41.7,123z M36.6,122.8
					l-2.6-0.1l0-1l2.6,0.1L36.6,122.8z"/>
			</g>
			<g>
				<path class="st6" d="M51.3,123.4l-1.9-0.1l0-1l1.1,0.1c0.1-0.4,0.2-0.7,0.4-1.1l0.9,0.3c-0.2,0.5-0.3,0.9-0.5,1.4L51.3,123.4z"
					/>
			</g>
			<g>
				<path class="st6" d="M52.9,118.8l-0.9-0.3c0.4-1,0.7-1.9,1.1-2.9l0.9,0.4C53.6,116.8,53.3,117.8,52.9,118.8z M55.2,113l-0.9-0.4
					c0.4-1,0.8-1.9,1.2-2.8l0.9,0.4C56,111.1,55.6,112.1,55.2,113z M57.7,107.4l-0.9-0.4c0.5-0.9,0.9-1.9,1.4-2.8l0.9,0.5
					C58.6,105.6,58.1,106.5,57.7,107.4z M60.5,101.9l-0.9-0.5c0.5-0.9,1-1.8,1.5-2.7l0.9,0.5C61.5,100.1,61,101,60.5,101.9z
					 M63.6,96.6l-0.8-0.5c0.6-0.9,1.1-1.8,1.7-2.6l0.8,0.6C64.7,94.9,64.1,95.8,63.6,96.6z"/>
			</g>
			<g>
				<path class="st6" d="M67,91.5l-0.8-0.6c0.1-0.2,0.3-0.4,0.4-0.6c-0.2,0-0.5-0.1-0.7-0.1l0.2-1c0.5,0.1,1,0.2,1.5,0.3l0.8,0.2
					l-0.5,0.6C67.6,90.7,67.3,91.1,67,91.5z"/>
			</g>
			<g>
				<path class="st6" d="M29.1,117.6c0-1,0.1-2,0.2-2.9l1,0.1c-0.1,0.9-0.2,1.9-0.2,2.8L29.1,117.6z M30.7,111.9l-1-0.2
					c0.2-1,0.5-1.9,0.8-2.8l0.9,0.3C31.2,110.1,30.9,111,30.7,111.9z M32.6,106.6l-0.9-0.4c0.4-0.9,0.9-1.8,1.4-2.6l0.9,0.5
					C33.4,104.9,33,105.7,32.6,106.6z M35.5,101.7l-0.8-0.6c0.6-0.8,1.2-1.5,1.9-2.2l0.7,0.7C36.7,100.3,36.1,101,35.5,101.7z
					 M39.4,97.6l-0.7-0.8c0.7-0.6,1.5-1.3,2.3-1.8l0.6,0.8C40.8,96.4,40.1,97,39.4,97.6z M44,94.3l-0.5-0.9c0.8-0.5,1.7-1,2.6-1.4
					l0.4,0.9C45.6,93.3,44.8,93.8,44,94.3z M49.1,91.8l-0.3-0.9c0.9-0.3,1.9-0.6,2.8-0.9l0.3,1C50.9,91.2,50,91.5,49.1,91.8z
					 M54.6,90.4l-0.2-1c1-0.2,1.9-0.3,2.9-0.4l0.1,1C56.5,90.1,55.5,90.2,54.6,90.4z M63.1,89.9c-0.8-0.1-1.7-0.1-2.5-0.1l-0.3,0
					l0-1l0.3,0c0.9,0,1.7,0,2.6,0.1L63.1,89.9z"/>
			</g>
		</g>
		<g>
			<path class="st6" d="M185.8,147.4c-1.4,0-2.8-0.1-4.2-0.3c-17.7-2.1-30.5-16.9-28.6-32.9c1.9-16,17.9-27.4,35.5-25.3
				c4.4,0.5,8.6,1.9,12.5,4l-0.5,0.9c-3.8-2-7.8-3.3-12.1-3.8c-17.1-2-32.6,8.9-34.4,24.4c-1.9,15.5,10.6,29.8,27.7,31.8
				c17.1,2.1,32.6-8.9,34.4-24.4c0.2-1.5,0.2-3.1,0.1-4.7l1-0.1c0.1,1.7,0.1,3.3-0.1,4.9C215.3,136.7,201.7,147.4,185.8,147.4z"/>
		</g>
		<g>
			<g>
				<path class="st6" d="M201.1,94.9l-1-0.1l0.3-2.2l0.6,0.3c0.4,0.2,0.9,0.5,1.3,0.8l-0.5,0.9c-0.2-0.1-0.4-0.3-0.6-0.4L201.1,94.9
					z"/>
			</g>
			<g>
				<path class="st6" d="M198.7,112.2l-1-0.1l0.4-2.9l1,0.1L198.7,112.2z M199.5,106.5l-1-0.1l0.4-2.9l1,0.1L199.5,106.5z
					 M200.3,100.7l-1-0.1l0.4-2.9l1,0.1L200.3,100.7z"/>
			</g>
			<g>
				<polygon class="st6" points="199.1,117.1 197,117 197.3,115 198.3,115.1 198.2,116 199.1,116.1 				"/>
			</g>
			<g>
				<path class="st6" d="M212,117.4l-3.2-0.1l0-1l3.2,0.1L212,117.4z M205.5,117.2l-3.2-0.1l0-1l3.2,0.1L205.5,117.2z"/>
			</g>
			<g>
				<path class="st6" d="M217.2,117.5l-2-0.1l0-1l0.9,0c0-0.3-0.1-0.6-0.1-0.9l1-0.1c0.1,0.5,0.1,1,0.1,1.5L217.2,117.5z"/>
			</g>
			<g>
				<path class="st6" d="M215.5,112.7c-0.2-0.9-0.5-1.9-0.8-2.8l0.9-0.3c0.3,1,0.6,1.9,0.9,2.9L215.5,112.7z M213.6,107.2
					c-0.4-0.9-0.9-1.7-1.4-2.6l0.9-0.5c0.5,0.9,1,1.8,1.5,2.6L213.6,107.2z M210.5,102.3c-0.6-0.8-1.2-1.5-1.9-2.2l0.7-0.7
					c0.7,0.7,1.3,1.5,2,2.3L210.5,102.3z M206.5,98c-0.7-0.6-1.5-1.3-2.3-1.8l0.6-0.8c0.8,0.6,1.6,1.2,2.3,1.9L206.5,98z"/>
			</g>
		</g>
		<g>
			<path class="st3" d="M65.1,118.2c0,2.1-1.7,3.8-3.8,3.8c-2.1,0-3.8-1.7-3.8-3.8s1.7-3.8,3.8-3.8
				C63.5,114.4,65.1,116.1,65.1,118.2z"/>
		</g>
		<g>
			<circle class="st3" cx="185" cy="118.1" r="3.8"/>
		</g>
	</g>
</g>
</svg>
