<svg width="90" height="90" viewBox="0 0 90 90" fill="none" xmlns="http://www.w3.org/2000/svg">
<path d="M12 56.4872V5H25.8547L25.9553 53.0314C25.9553 58.7725 26.5402 59.6166 28.962 59.6166C29.6383 59.6166 30.3146 59.529 31 59.4493V68.8215C29.0625 69.4984 27.2256 70 24.1183 70C15.7836 69.992 12 66.6158 12 56.4872Z" fill="black"/>
<path d="M77 18.5128V70H63.1453L63.0447 21.9686C63.0447 16.2275 62.4598 15.3834 60.038 15.3834C59.3617 15.3834 58.6854 15.471 58 15.5507V6.17848C59.9375 5.50165 61.7744 5 64.8817 5C73.2164 5.00796 77 8.38417 77 18.5128Z" fill="black"/>
<path d="M54 71.5344V38H40.0447V68.0906C40.0447 73.8117 39.4598 74.6528 37.038 74.6528C36.3617 74.6528 35.6854 74.5655 35 74.4862V83.8256C36.9375 84.5001 38.7744 85 41.8817 85C50.2164 84.9921 54 81.6276 54 71.5344Z" fill="black"/>
</svg>
