<?xml version="1.0" encoding="utf-8"?>
<!-- Generator: Adobe Illustrator 25.0.1, SVG Export Plug-In . SVG Version: 6.00 Build 0)  -->
<svg version="1.1" id="Calque_1" xmlns="http://www.w3.org/2000/svg" xmlns:xlink="http://www.w3.org/1999/xlink" x="0px" y="0px"
	 viewBox="0 0 606 280" style="enable-background:new 0 0 606 280;" xml:space="preserve">
<style type="text/css">
	.st0{fill:none;stroke:#000000;stroke-miterlimit:10;}
	.st1{fill:url(#SVGID_1_);}
	.st2{fill:#875932;}
	.st3{fill:#E1B34C;}
</style>
<g>
	<path class="st0" d="M236.2,158.8c-0.9,11.2-2.1,19.7-3.7,25.5c-1.6,5.8-4.4,10.6-8.5,14.5c-2.5,3.3-5.6,5.8-9.3,7.6
		c-3.7,1.7-7.4,2.6-11.2,2.6c-11.1,0-19.5-6.8-25.1-20.3s-8.4-30.4-8.4-50.6c0-20.3,2.7-37.3,8.1-50.9c5.4-13.6,13.7-20.4,24.8-20.4
		c4,0,7.8,0.9,11.4,2.6c3.6,1.7,6.8,4.3,9.6,7.6c4,4,6.8,8.7,8.4,14.1c1.7,5.4,3,13.2,4,23.4h3.8c0-24.1,0.2-40.8,0.7-50.2H237
		c-0.7,8.3-2.1,12.4-4.3,12.4c-0.9,0-1.9-0.6-3.1-1.9c-4.4-4.3-8.9-7.6-13.5-10c-4.6-2.3-10.2-3.5-16.9-3.5
		c-11.3,0-21.5,3.3-30.3,9.7c-8.9,6.5-15.8,15.6-20.7,27.4c-4.8,11.3-7.2,24.2-7.4,38.6c-8.8-8.3-18-15.7-26.6-22.7
		c-7-5.6-13.6-11-19.1-16C87.8,91.9,82.4,85,78.8,77.9c-3.4-6.7-5.2-13.6-5.2-20.5c0-15.8,7.7-25.7,17.5-29.9c7-3,15.1-3.3,22.4-0.9
		c7,2.3,13.1,7.2,16.5,14.5c6.1,13.5,3.5,35.3-17.4,65.7l15.6,10.7c25.4-37,27.7-65.5,19.1-84.3c-5.7-12.5-16-20.8-27.8-24.7
		C107.9,4.9,95,5.3,83.7,10.2c-16.3,7-29,22.7-29,47.3c0,2.4,0.2,4.9,0.4,7.3C49.5,64.9,42.6,65,34.5,65C22.7,65,13.8,64.8,8,64.4
		v4.1c5,0.3,8.6,0.8,10.9,1.7c2.3,0.8,3.8,2.4,4.7,4.8c0.2,0.6,0.4,1.3,0.6,2.1v121.5c-0.2,0.8-0.3,1.5-0.6,2.1
		c-0.8,2.4-2.4,3.9-4.7,4.8c-2.3,0.8-5.9,1.4-10.9,1.7v4.1c5.8-0.4,14.7-0.6,26.5-0.6c10.5,0,18.8,0.2,25,0.5
		c-2.5,13.8-0.9,25.4,3.3,34.7c5.7,12.5,16,20.8,27.8,24.7c11.5,3.8,24.5,3.3,35.7-1.5c16.3-7,29-22.7,29-47.3
		c0-9.9-2.5-19.7-7.2-29.1c-4.6-9-11.4-17.7-20.3-25.8c-6.4-5.8-13-11.2-19.9-16.8C85,131.6,58.4,110.1,45.3,75l0,0
		c0.8-2.3,2.4-3.9,4.7-4.8c1.4-0.5,3.3-0.9,5.8-1.2c1.2,5.9,3.2,11.8,6.1,17.5c4.6,9,11.4,17.7,20.3,25.8c6.4,5.8,13,11.2,19.9,16.8
		c14.7,11.9,28.2,24.2,41.8,38.3c1.1,4.1,2.4,8.1,3.9,11.8c4.8,11.3,11.6,19.9,20.4,25.8c8.8,5.9,19,8.9,30.6,8.9
		c6.4,0,11.8-1.1,16.4-3.4c4.5-2.3,9.3-5.6,14.2-10.1c1.4-1.1,2.6-1.7,3.5-1.7c1.1,0,2,0.9,2.6,2.8c0.6,1.9,1.1,5,1.4,9.4h3.8
		c-0.4-9.8-0.7-27.2-0.7-52.3h-3.8V158.8z M96.1,164.9c7,5.6,13.6,11,19.1,16c7.1,6.5,12.5,13.4,16.1,20.5
		c3.4,6.7,5.2,13.6,5.2,20.5c0,15.8-7.7,25.7-17.5,29.9c-7,3-15.1,3.3-22.4,0.9c-7-2.3-13.1-7.2-16.5-14.5
		c-6.1-13.5-3.5-35.3,17.4-65.7l-15.5-11c-11.7,17-18.5,32.2-21.6,45.5c-4.7-0.3-8.2-0.8-10.4-1.6c-2.3-0.8-3.8-2.4-4.7-4.8
		c-0.8-2.3-1.2-6.2-1.2-11.4v-76.1C59.2,135,78.6,150.7,96.1,164.9z"/>
	<path class="st0" d="M317.5,69.5c-1.9,0.1-3.4,0.3-4.3,0.7c-0.9,0.3-1.5,1-1.8,2s-0.5,2.6-0.5,4.8v42.9c0,2.2,0.2,3.8,0.5,4.8
		s0.9,1.6,1.8,2c0.9,0.3,2.3,0.6,4.3,0.7v1.7c-2.5-0.2-5.9-0.3-10.3-0.3c-4.7,0-8.1,0.1-10.4,0.3v-1.7c1.9-0.1,3.4-0.3,4.3-0.7
		c0.9-0.3,1.5-1,1.8-2s0.5-2.6,0.5-4.8v-43c0-2.2-0.2-3.8-0.5-4.8s-0.9-1.6-1.8-2s-2.3-0.6-4.3-0.7v-1.7c2.3,0.2,5.7,0.3,10.4,0.3
		c4.3,0,7.8-0.1,10.3-0.3V69.5z"/>
	<path class="st0" d="M359.1,86.5c1,1.2,1.8,2.6,2.2,4.3s0.7,4.1,0.7,7v23.1c0,2.4,0.5,4,1.4,4.9s2.5,1.3,4.8,1.3v1.8
		c-5-0.2-8.2-0.3-9.7-0.3s-4.5,0.1-9.1,0.3v-1.8c2,0,3.4-0.4,4.2-1.3c0.8-0.9,1.2-2.5,1.2-4.9v-25c0-3.2-0.4-5.7-1.3-7.4
		c-0.9-1.7-2.6-2.5-5.3-2.5c-2.2,0-4.2,0.7-5.9,2.1c-1.7,1.4-3.1,3.3-4,5.7c-0.9,2.4-1.4,5.1-1.4,8V121c0,2.4,0.4,4,1.2,4.9
		c0.8,0.9,2.2,1.3,4.2,1.3v1.8c-4.5-0.2-7.6-0.3-9.1-0.3s-4.8,0.1-9.7,0.3v-1.8c2.3,0,3.9-0.4,4.8-1.3s1.4-2.5,1.4-4.9V94
		c0-2.6-0.5-4.6-1.4-5.8c-0.9-1.2-2.5-1.8-4.8-1.8v-1.8c1.7,0.2,3.4,0.3,5,0.3c3.4,0,6.2-0.4,8.4-1.2v10.2c1.4-3.7,3.2-6.4,5.6-8
		s5.1-2.5,8.2-2.5C354.3,83.2,357.2,84.3,359.1,86.5z"/>
	<path class="st0" d="M405.2,62.1c1.9,0.5,3.5,1.1,4.7,1.9c1.8,1.2,2.8,2.8,2.8,4.8c0,1.6-0.5,2.9-1.5,4s-2.2,1.6-3.7,1.6
		c-1.4,0-2.6-0.5-3.7-1.6c-1-1.1-1.5-2.4-1.5-3.9c0-1,0.2-2,0.7-2.9s1.1-1.5,2-2c-1.2-0.9-3.2-1.3-5.9-1.3c-5.4,0-9.2,2.2-11.5,6.7
		c-0.8,1.5-1.4,3.4-1.7,5.7c-0.3,2.3-0.5,5.5-0.5,9.5h13.1c3.4,0,6.1-0.1,8-0.2s3.8-0.4,5.5-0.8V121c0,2.4,0.5,4,1.4,4.9
		s2.5,1.3,4.8,1.3v1.8c-5-0.2-8.3-0.3-9.8-0.3c-1.6,0-4.8,0.1-9.8,0.3v-1.8c2.3,0,3.9-0.4,4.8-1.3s1.4-2.5,1.4-4.9V94
		c0-2.6-0.5-4.6-1.4-5.8c-0.9-1.2-2.5-1.8-4.8-1.8h-13.1v34.7c0,2.4,0.6,4,1.7,4.9c1.2,0.9,2.9,1.3,5.2,1.3v1.8l-1.8-0.1
		c-4.7-0.2-7.7-0.3-8.9-0.3c-1.6,0-4.8,0.1-9.8,0.3v-1.8c2.3,0,3.9-0.4,4.8-1.3s1.4-2.5,1.4-4.9V86.3h-6.5v-1.7h6.5
		c0-7.8,2-13.6,5.8-17.5c1.7-1.7,3.8-3,6.3-4.1c2.5-1,5.5-1.6,8.9-1.6C401.2,61.4,403.3,61.6,405.2,62.1z"/>
	<path class="st0" d="M457.9,86.5c1,1.2,1.8,2.6,2.2,4.3s0.7,4.1,0.7,7v23.1c0,2.4,0.5,4,1.4,4.9s2.5,1.3,4.8,1.3v1.8
		c-5-0.2-8.2-0.3-9.7-0.3s-4.5,0.1-9.1,0.3v-1.8c2,0,3.4-0.4,4.2-1.3c0.8-0.9,1.2-2.5,1.2-4.9v-25c0-3.2-0.4-5.7-1.3-7.4
		c-0.9-1.7-2.6-2.5-5.3-2.5c-2.2,0-4.2,0.7-5.9,2.1c-1.7,1.4-3.1,3.3-4,5.7c-0.9,2.4-1.4,5.1-1.4,8V121c0,2.4,0.4,4,1.2,4.9
		c0.8,0.9,2.2,1.3,4.2,1.3v1.8c-4.5-0.2-7.6-0.3-9.1-0.3s-4.8,0.1-9.7,0.3v-1.8c2.3,0,3.9-0.4,4.8-1.3s1.4-2.5,1.4-4.9V94
		c0-2.6-0.5-4.6-1.4-5.8c-0.9-1.2-2.5-1.8-4.8-1.8v-1.8c1.7,0.2,3.4,0.3,5,0.3c3.4,0,6.2-0.4,8.4-1.2v10.2c1.4-3.7,3.2-6.4,5.6-8
		s5.1-2.5,8.2-2.5C453.1,83.2,456,84.3,457.9,86.5z"/>
	<path class="st0" d="M484,120.9c0,2.4,0.5,4,1.4,4.9s2.5,1.3,4.8,1.3v1.8c-5-0.2-8.3-0.3-9.8-0.3c-1.6,0-4.8,0.1-9.8,0.3v-1.8
		c2.3,0,3.9-0.4,4.8-1.3s1.4-2.5,1.4-4.9v-27c0-2.6-0.5-4.6-1.4-5.8c-0.9-1.2-2.5-1.8-4.8-1.8v-1.8c1.7,0.2,3.4,0.3,5,0.3
		c3.4,0,6.2-0.4,8.4-1.2V120.9z M483.4,64.5c1,1.1,1.5,2.4,1.5,3.9s-0.5,2.8-1.5,3.9s-2.2,1.6-3.7,1.6c-1.4,0-2.6-0.5-3.7-1.6
		c-1-1.1-1.5-2.4-1.5-3.9s0.5-2.8,1.5-3.9s2.2-1.6,3.7-1.6C481.2,62.8,482.4,63.4,483.4,64.5z"/>
	<path class="st0" d="M331.8,151.2c2.3,1,4.5,2.4,6.7,4.1c0.6,0.5,1.1,0.8,1.5,0.8c1.1,0,1.8-1.7,2.1-5.2h1.9
		c-0.2,3.7-0.3,10.4-0.3,19.9h-1.9c-0.6-3.7-1.1-6.4-1.6-8.1c-0.5-1.6-1.3-3.2-2.4-4.7c-1.6-2.2-3.7-3.9-6.2-5.1
		c-2.5-1.1-5.2-1.7-8.2-1.7c-3.5,0-6.6,1.2-9.2,3.7s-4.7,6-6.1,10.6c-1.5,4.6-2.2,10-2.2,16.1c0,6.3,0.8,11.7,2.4,16.2
		s3.7,7.9,6.5,10.2s5.9,3.5,9.5,3.5c2.7,0,5.3-0.5,7.9-1.6c2.5-1.1,4.5-2.7,6-4.9c1.1-1.6,1.9-3.3,2.4-5.2c0.5-1.8,0.9-4.7,1.4-8.5
		h1.9c0,9.9,0.1,16.8,0.3,20.7h-1.9c-0.2-1.8-0.4-3.2-0.7-3.9c-0.3-0.8-0.7-1.2-1.3-1.2c-0.4,0-1,0.2-1.7,0.7
		c-2.4,1.8-4.8,3.2-7,4.2s-4.9,1.4-8,1.4c-5.1,0-9.7-1.2-13.5-3.7c-3.9-2.5-6.9-6.1-9-10.8s-3.2-10.3-3.2-16.8
		c0-6.3,1.1-12,3.3-16.9c2.2-4.9,5.3-8.7,9.2-11.4c3.9-2.7,8.4-4.1,13.4-4.1C326.7,149.7,329.5,150.2,331.8,151.2z"/>
	<path class="st0" d="M384.9,172.2c3.4,3.9,5.1,9.8,5.1,17.7s-1.7,13.8-5.1,17.6c-3.4,3.9-7.8,5.8-13.4,5.8c-5.5,0-10-1.9-13.4-5.8
		c-3.4-3.9-5.1-9.7-5.1-17.6c0-7.9,1.7-13.8,5.1-17.7s7.8-5.8,13.4-5.8C377,166.4,381.5,168.4,384.9,172.2z M363.8,173.5
		c-1.9,3.5-2.8,9-2.8,16.5s0.9,12.9,2.8,16.4s4.5,5.3,7.7,5.3s5.8-1.8,7.7-5.3c1.9-3.5,2.8-9,2.8-16.4s-0.9-12.9-2.8-16.5
		c-1.9-3.5-4.5-5.3-7.7-5.3C368.2,168.1,365.7,169.9,363.8,173.5z"/>
	<path class="st0" d="M432,169.7c1,1.2,1.8,2.6,2.2,4.3c0.4,1.7,0.7,4.1,0.7,7v23.1c0,2.4,0.5,4,1.4,4.9s2.5,1.3,4.8,1.3v1.8
		c-5-0.2-8.2-0.3-9.7-0.3s-4.5,0.1-9.1,0.3v-1.8c2,0,3.4-0.4,4.2-1.3c0.8-0.9,1.2-2.5,1.2-4.9v-25c0-3.2-0.4-5.7-1.3-7.4
		s-2.6-2.5-5.3-2.5c-2.2,0-4.2,0.7-5.9,2.1c-1.7,1.4-3.1,3.3-4,5.7s-1.4,5.1-1.4,8v19.2c0,2.4,0.4,4,1.2,4.9
		c0.8,0.9,2.2,1.3,4.2,1.3v1.8c-4.5-0.2-7.6-0.3-9.1-0.3s-4.8,0.1-9.7,0.3v-1.8c2.3,0,3.9-0.4,4.8-1.3c0.9-0.9,1.4-2.5,1.4-4.9v-27
		c0-2.6-0.5-4.6-1.4-5.8s-2.5-1.8-4.8-1.8v-1.8c1.7,0.2,3.4,0.3,5,0.3c3.4,0,6.2-0.4,8.4-1.2v10.2c1.4-3.7,3.2-6.4,5.6-8
		s5.1-2.5,8.2-2.5C427.2,166.4,430.1,167.5,432,169.7z"/>
	<path class="st0" d="M464.3,167.4c1.5,0.6,2.7,1.4,3.7,2.2c0.6,0.5,1.1,0.7,1.5,0.7c1,0,1.6-1.3,1.8-3.8h1.9
		c-0.2,2.8-0.3,7.7-0.3,14.7H471c-0.6-3.8-1.7-6.9-3.5-9.4c-1.7-2.5-4.2-3.7-7.6-3.7c-1.9,0-3.5,0.6-4.8,1.8
		c-1.2,1.2-1.9,2.8-1.9,4.9c0,2,0.6,3.7,1.9,5.1c1.3,1.4,3.4,3,6.3,4.9c0.5,0.3,1.2,0.8,2.2,1.5c2.5,1.7,4.5,3.3,6,4.6
		s2.7,2.9,3.7,4.6c0.9,1.7,1.4,3.7,1.4,6c0,3.8-1.3,6.8-4,8.9s-6,3.2-9.9,3.2c-2.4,0-4.6-0.4-6.4-1.2c-1.2-0.6-2.3-1.4-3.3-2.3
		c-0.2-0.2-0.5-0.3-0.7-0.3c-0.4,0-0.7,0.3-1,0.9c-0.3,0.6-0.5,1.4-0.7,2.4h-1.9c0.2-3.3,0.3-9,0.3-17.3h1.9
		c0.6,5.4,1.7,9.5,3.2,12.1c1.6,2.7,4.3,4,8,4c1.9,0,3.6-0.7,5-2c1.5-1.3,2.2-3.4,2.2-6.2c0-2.2-0.7-4.1-2.2-5.7
		c-1.4-1.6-3.8-3.4-7-5.6c-2.7-1.8-4.7-3.3-6.1-4.4c-1.4-1.2-2.6-2.6-3.6-4.2c-1-1.7-1.5-3.6-1.5-5.9c0-3.6,1.1-6.4,3.4-8.3
		c2.3-1.9,5.1-2.9,8.6-2.9C461.1,166.4,462.8,166.7,464.3,167.4z"/>
	<path class="st0" d="M516.2,201.8c-1,3.2-2.8,5.9-5.5,8.2s-5.9,3.4-9.7,3.4c-3.8,0-7.2-0.9-10-2.8c-2.8-1.9-5-4.5-6.5-7.9
		s-2.2-7.3-2.2-11.7c0-5,0.8-9.4,2.3-13c1.5-3.7,3.7-6.5,6.4-8.5c2.8-2,6-3,9.7-3c4.9,0,8.6,1.6,11.3,4.7c2.6,3.1,3.9,7.9,3.9,14.3
		h-25.4c-0.2,1.6-0.2,3.5-0.2,5.5c0,3.8,0.6,7.1,1.7,9.9c1.2,2.8,2.7,5,4.6,6.5s3.9,2.3,6.1,2.3c2.6,0,4.9-0.7,6.9-2s3.7-3.5,5-6.7
		L516.2,201.8z M493.7,172c-1.8,2.7-3,6.6-3.4,11.8H508c0.1-4.5-0.5-8.2-1.8-11.2s-3.3-4.5-5.9-4.5
		C497.8,168.1,495.6,169.4,493.7,172z"/>
	<path class="st0" d="M535.5,204.1c0,2.4,0.5,4,1.4,4.9s2.5,1.3,4.8,1.3v1.8c-5-0.2-8.3-0.3-9.8-0.3c-1.6,0-4.8,0.1-9.8,0.3v-1.8
		c2.3,0,3.9-0.4,4.8-1.3c0.9-0.9,1.4-2.5,1.4-4.9v-27c0-2.6-0.5-4.6-1.4-5.8s-2.5-1.8-4.8-1.8v-1.8c1.7,0.2,3.4,0.3,5,0.3
		c3.4,0,6.2-0.4,8.4-1.2L535.5,204.1L535.5,204.1z M534.9,147.7c1,1.1,1.5,2.4,1.5,3.9s-0.5,2.8-1.5,3.9c-1,1.1-2.2,1.6-3.7,1.6
		c-1.4,0-2.6-0.5-3.7-1.6c-1-1.1-1.5-2.4-1.5-3.9s0.5-2.8,1.5-3.9c1-1.1,2.2-1.6,3.7-1.6C532.7,146,533.9,146.6,534.9,147.7z"/>
	<path class="st0" d="M558.7,204.1c0,2.4,0.5,4,1.4,4.9s2.5,1.3,4.8,1.3v1.8c-5-0.2-8.3-0.3-9.8-0.3c-1.6,0-4.8,0.1-9.8,0.3v-1.8
		c2.3,0,3.9-0.4,4.8-1.3c0.9-0.9,1.4-2.5,1.4-4.9v-49.3c0-2.6-0.5-4.6-1.4-5.8s-2.5-1.8-4.8-1.8v-1.8c1.7,0.2,3.4,0.3,5,0.3
		c3.4,0,6.2-0.4,8.4-1.2L558.7,204.1L558.7,204.1z"/>
	<path class="st0" d="M588.8,167.4c1.5,0.6,2.7,1.4,3.7,2.2c0.6,0.5,1.1,0.7,1.5,0.7c1,0,1.6-1.3,1.8-3.8h1.9
		c-0.2,2.8-0.3,7.7-0.3,14.7h-1.9c-0.6-3.8-1.7-6.9-3.5-9.4c-1.7-2.5-4.2-3.7-7.6-3.7c-1.9,0-3.5,0.6-4.8,1.8
		c-1.2,1.2-1.9,2.8-1.9,4.9c0,2,0.6,3.7,1.9,5.1c1.3,1.4,3.4,3,6.3,4.9c0.5,0.3,1.2,0.8,2.2,1.5c2.5,1.7,4.5,3.3,6,4.6
		s2.7,2.9,3.7,4.6c0.9,1.7,1.4,3.7,1.4,6c0,3.8-1.3,6.8-4,8.9s-6,3.2-9.9,3.2c-2.4,0-4.6-0.4-6.4-1.2c-1.2-0.6-2.3-1.4-3.3-2.3
		c-0.2-0.2-0.5-0.3-0.7-0.3c-0.4,0-0.7,0.3-1,0.9c-0.3,0.6-0.5,1.4-0.7,2.4h-1.9c0.2-3.3,0.3-9,0.3-17.3h1.9
		c0.6,5.4,1.7,9.5,3.2,12.1c1.6,2.7,4.3,4,8,4c1.9,0,3.6-0.7,5-2c1.5-1.3,2.2-3.4,2.2-6.2c0-2.2-0.7-4.1-2.2-5.7
		c-1.4-1.6-3.8-3.4-7-5.6c-2.7-1.8-4.7-3.3-6.1-4.4c-1.4-1.2-2.6-2.6-3.6-4.2c-1-1.7-1.5-3.6-1.5-5.9c0-3.6,1.1-6.4,3.4-8.3
		c2.3-1.9,5.1-2.9,8.6-2.9C585.5,166.4,587.3,166.7,588.8,167.4z"/>
</g>
</svg>
