<svg xmlns="http://www.w3.org/2000/svg" xmlns:xlink="http://www.w3.org/1999/xlink" viewBox="0 0 355.4 257.9" xmlns:v="https://vecta.io/nano"><g fill="#322e3c"><path d="M194 93.7c.8-1.1 1.5-2.2 1.9-3l.5-.9c3.7-5.6 7-11.6 9.7-17.9v-.1c.5-1.2 1-2.3 1.4-3.5l.5-1.4c.2-.5.3-1 .5-1.4.2-.5.3-1 .5-1.5l.4-1.5c.2-.5.3-1 .4-1.5l.4-1.5c.2-1 .5-2 .6-3 .8-4 1.2-8.1 1.1-12.3-.1-4.1-.7-8.3-1.7-12.3-1.1-4-2.7-7.9-4.8-11.5s-4.7-7-7.6-10c-1.5-1.5-3-2.9-4.6-4.2-.8-.7-1.7-1.3-2.5-1.9-.4-.3-.9-.6-1.3-.9-.2-.1-.5-.3-.7-.4l-.4-.2c-.1-.1-.2-.1-.4-.2L183.3 0l1.2 5.4.1.5.1.6c.1.4.2.8.2 1.2.1.8.3 1.6.4 2.4.2 1.6.4 3.3.5 4.9.3 3.3.3 6.6.1 9.9-.3 6.6-1.5 13-3.7 19.1-.6 1.5-1.2 3-1.9 4.5-.7 1.4-1.5 2.9-2.3 4.2-.8 1.4-1.7 2.7-2.7 4-.2.3-.5.6-.7 1l-.8 1c-.3.3-.5.6-.8.9l-.8.9c-.3.3-.5.6-.8.9s-.5.6-.8.9l-1.7 1.7c-1.2 1.1-2.4 2.1-3.7 3.1-.5.4-1 .7-1.5 1.1 2.7 3.7 12.3 17.2 30.3 25.5zm97.4 27.2l-.1-1.1c-.2-1.4-.6-2.8-1-4.1l-1.6-3.8c-1.2-2.4-2.7-4.7-4.3-6.8l-4.9-6.2-4.6-6.2c-1.1-1.7-2-3.4-2.8-5.3l20-.3-6.5-2.3-13.4-4.8a4.49 4.49 0 0 1 1.8-.7c.4-.1.8-.1 1.2 0 .2 0 .4 0 .6.1.1 0 .2.1.3.1l.3.1c.4.1.9.3 1.5.4.3 0 .7 0 1.1-.1s.8-.4 1.1-.7.5-.8.6-1.2 0-.8-.1-1.2c-.2-.7-.5-1.2-1-1.7-1.7-1.7-4.4-2-6.4-.8-1 .6-1.7 1.5-2 2.5-.4 1-.4 2.1 0 2.9l-.8-.3-15-5.4c-.8-1-1.6-2-2.6-2.9-1-1-2.1-1.9-3.3-2.7-.6-.4-1.3-.7-1.9-1a8.3 8.3 0 0 0-2.1-.6c-.7-.2-1.4-.2-2.1-.3h-2.1c-.8 0-1.5.1-2.3.4-.7.3-1.4.6-2 1.1-1.2.9-2.2 2-3 3.2s-1.4 2.4-2 3.7-1.1 2.5-1.5 3.8l-.3 1-.3.9c-.2.6-.5 1.2-.8 1.8l-1.9 3.4c-1.4 2.2-3.1 4.3-4.9 6.2s-3.8 3.6-6 5-4.5 2.4-6.9 2.8c-.6.1-1.2.1-1.8.1s-1.3 0-1.9-.1c-1.3-.1-2.5-.3-3.8-.6-2.5-.5-5-1.4-7.4-2.3l-2-.9C172 88.4 162 70.2 161.4 69.5l-2.4-3.3a120.92 120.92 0 0 1-4.2-6.6c-1.3-2.3-2.6-4.6-3.8-7l-3.7-7.2c-1.3-2.4-2.7-4.8-4.3-7.2-3.1-4.7-6.9-8.9-11.1-12.6-2.1-1.8-4.3-3.6-6.5-5.2l-1.7-1.2-.8-.6-.9-.6c-1.2-.8-2.4-1.5-3.7-2.2-5-2.7-10.4-4.6-15.8-5.8-5.4-1.3-10.9-2-16.4-2.3s-11-.3-16.5.1c-2.7.2-5.5.4-8.2.8l-4.1.6-2 .3-1 .2c-.3.1-.7.1-1 .2L45 11.6l7.8 3.1c7.8 3.1 15.4 6.7 22.6 11.1 3.6 2.2 7.1 4.5 10.5 7s6.7 5.1 9.8 7.9a126 126 0 0 1 9.1 8.8c2.9 3.1 5.6 6.3 8.2 9.7s5 6.8 7.2 10.5c2.2 3.6 4.3 7.4 5.9 11.3h0c.6 1.4 1.7 4.2 2.2 6.6 0 0 11.3 1.8 21.3 0 0 0-10.3 3.9-25.6 3.1-1 .7-1.9 1.4-2.8 2.2-5.5 4.3-10.6 9-15.4 14.1-2.4 2.5-4.7 5.2-6.9 7.9-1.1 1.4-2.2 2.8-3.2 4.2-.5.7-1 1.4-1.5 2.2-.2.4-.5.7-.7 1.1l-.8 1.2-17.8 29.2 23.3-25.1.4-.4.4-.5 2.7-2.7c1.2-1.2 2.5-2.4 3.7-3.5 2.5-2.3 5.2-4.5 7.9-6.5 2.7-2.1 5.5-4 8.4-5.6s5.9-3 8.9-3.8c1.5-.4 3-.6 4.4-.7h1.2c.4 0 .8 0 1.2.1.8.1 1.6.1 2.4.2 1.5.2 3 .6 4.5 1.1.7.3 1.4.6 2.2.9a22.56 22.56 0 0 1 2.2 1.1l4.8 2.5c1.7.8 3.4 1.5 5.2 2.1 3.5 1.2 7.1 2.1 10.7 2.7.9.1 1.8.3 2.7.4l1.4.2c.5.1.9.1 1.4.1l1.4.1 1.3.1c.9.1 1.8.1 2.7.2 3.6.3 7.1.4 10.7.4s7.2-.2 10.8-.5c3.6-.4 7.2-1 10.8-2 1.8-.5 3.6-1.1 5.3-1.9.9-.4 1.7-.8 2.5-1.3l2.4-1.5c1.6-1.1 3-2.4 4.3-3.8s2.4-3 3.4-4.6 1.8-3.2 2.6-4.7l1.2-2.1c.5-.7 1-1.3 1.5-1.9a14.29 14.29 0 0 1 3.5-3c.6-.4 1.3-.7 2-.8.3-.1.7-.2 1-.2h1.2l28-.4.6 2.2v.1c.6 2.7 1.2 6.1 2 8.8.4 1.3 1.5 4 2.1 5.2.3.6.7 1.2 1.1 1.8.3.6.7 1.2 1 1.7.6 1.1 1.1 2.3 1.1 3.2 0 .5 0 .9-.1 1.3s-.3.8-.6 1.3c-.6.8-1.4 1.7-2.4 2.4-.9.7-1.9 1.2-2.9 1.4s-2.1.2-3.1-.1c-.5-.1-1-.3-1.4-.6s-.8-.6-1.1-.9c-.7-.7-1.2-1.7-1.4-2.7-.1-.5-.2-1.1-.2-1.7s0-1.1.1-1.7.2-1.2.4-1.8c.1-.4.2-.7.3-1.1 2.8-6.2 2.3-18.1 2.3-18.1v-.3c-.2.9-.5 2.1-.9 3.6 0 .1 0 .1-.1.2-.4 1.2-.9 2.4-1.4 3.6-1 2.4-2.2 4.6-3.5 6.9-1.2 2.3-2.5 4.6-3.6 7-.6 1.2-1.1 2.4-1.6 3.7s-.9 2.6-1.2 3.9c-.6 2.7-.9 5.6-.4 8.4.2 1.4.6 2.9 1.3 4.3.3.7.7 1.4 1.2 2s1 1.2 1.5 1.7c1.1 1 2.3 1.8 3.5 2.5s2.4 1.4 3.7 1.9c1.3.6 2.7 1 4.1 1.3s2.9.4 4.5.3c.8-.1 1.5-.2 2.2-.4s1.5-.4 2.2-.7c1.4-.6 2.7-1.4 3.9-2.3 2.3-1.9 4.1-4.4 5.2-7.1.3-.7.5-1.4.7-2.1s.3-1.4.4-2.2v-2.3c.5-.5.5-.9.4-1.2zm-180.1-68l.2.2.2.3c-.1-.2-.2-.4-.4-.5zm114.1 38.7h0zm45.7-11.9c.2-.9.6-1.7 1.1-2.4.5-.6 1.2-1.1 1.8-1.3 1.3-.4 2.9 0 3.8.8.2.2.3.4.4.6v.2s-.1.1-.3.1c-.3 0-.7 0-1.2-.1h-.8c-.3 0-.6 0-.8.1-.5.1-1 .3-1.5.5-.7.4-1.4 1-1.7 1.7l-.8-.2zM34.2 213H3.3c.7 8.3 6.3 13.6 14.1 13.6 5.1 0 9.6-2.6 12.1-6.7l2.9 1.4c-3.1 5.3-8.7 8.5-15.1 8.5-9.6 0-17.4-7.3-17.4-18.2 0-10.8 7.7-17.9 17.4-17.9 9.8 0 16.8 7.1 16.8 17.9v1.4h.1zm-3.2-2.8c-.5-8.2-6-13.4-13.6-13.4s-13.3 5-14 13.4H31zm23.7-15.7v2.9h-8.3v31.5h-3.2v-31.5H37v-2.9h6.2v-12.8h3.2v12.8h8.3zm4-12.6c0-1.5 1.3-2.6 2.8-2.6 1.6 0 2.9 1.1 2.9 2.6s-1.3 2.6-2.9 2.6c-1.5 0-2.8-1.1-2.8-2.6zm1.2 47v-34.3h3.2v34.3h-3.2zm39.9 0h-4.6l-18.7-18.2v18.2h-3.2v-53h3.2v32.7l13.7-14h4.6l-14.8 15 19.8 19.3zm35.7-18.8v18.8h-9.6v-18.3c0-5.4-3.2-7.8-6.5-7.8-3.5 0-7.7 1.8-7.7 8.1v18H102v-34.3h9.6v5.8c1.5-4.6 6.9-6.7 10.3-6.7 9 0 13.7 6.1 13.6 16.4zm4.9 1.6c0-10.9 8.7-18.1 18.5-18.1s18.5 7.2 18.5 18.1c0 10.8-8.7 18-18.5 18-9.8.1-18.5-7.1-18.5-18zm27.2 0c0-5.4-3.9-9.1-8.7-9.1s-8.7 3.8-8.7 9.1 3.9 9 8.7 9 8.7-3.7 8.7-9zm38.6-17.2h9.6v34.3h-9.6v-5.6c-1.5 4.5-6.9 6.5-10.3 6.5-9 0-13.7-6-13.6-16.3v-18.9h9.6v18.4c0 5.4 3.2 7.9 6.5 7.9 3.5 0 7.7-1.9 7.7-8.1v-18.2h.1zm50.6 15.6v18.8h-9.6v-18.3c0-5.4-3.2-7.8-6.5-7.8-3.5 0-7.7 1.8-7.7 8.1v18h-9.6v-34.3h9.6v5.8c1.5-4.6 6.9-6.7 10.3-6.7 8.9 0 13.6 6.1 13.5 16.4zm4.9 1.6c0-10.9 8.7-18.1 18.5-18.1s18.5 7.2 18.5 18.1c0 10.8-8.7 18-18.5 18-9.8.1-18.5-7.1-18.5-18zm27.2 0c0-5.4-3.9-9.1-8.7-9.1s-8.7 3.8-8.7 9.1 3.9 9 8.7 9c4.8.1 8.7-3.7 8.7-9zm38.6-17.2h9.6v34.3h-9.6v-5.6c-1.5 4.5-6.9 6.5-10.3 6.5-9 0-13.7-6-13.6-16.3v-18.9h9.6v18.4c0 5.4 3.2 7.9 6.5 7.9 3.5 0 7.7-1.9 7.7-8.1l.1-18.2zM14.2 245.9h1v8.3h4.3v1h-5.4l.1-9.3z"/><use xlink:href="#B"/><path d="M34.5 255.9l.9-.3c.4.8 1.4 1.4 2.5 1.4 1.7 0 2.6-.8 2.6-2.9v-.7c-.4 1.3-1.6 1.8-2.8 1.8-1.8 0-3.5-1.2-3.5-3.7s1.6-3.7 3.5-3.7c1.2 0 2.4.5 2.8 1.8v-1.7h1v6.1c0 2.7-1.3 3.9-3.7 3.9-1.5 0-2.8-.8-3.3-2zm6.1-4.4c0-1.8-1.1-2.9-2.7-2.9s-2.6 1.1-2.6 2.9 1.1 2.9 2.7 2.9c1.5 0 2.6-1.1 2.6-2.9z"/><use xlink:href="#C"/><path d="M53.5 247.9h1v1.3c.3-.9 1.1-1.6 2.7-1.4l-.1 1c-1.8-.3-2.5.7-2.5 2.6v3.8h-1v-7.3h-.1zm4.5 3.6c0-2.6 1.6-3.8 3.5-3.8 1.2 0 2.4.6 2.8 1.8v-4.1h1v9.7h-1v-1.6c-.4 1.2-1.6 1.8-2.8 1.8-1.9.1-3.5-1.2-3.5-3.8zm6.3 0c0-1.8-1.1-2.9-2.7-2.9s-2.6 1.1-2.6 2.9 1.1 2.9 2.7 2.9c1.5.1 2.6-1 2.6-2.9z"/><use xlink:href="#D"/><path d="M80.8 251.5c0-2.6 1.6-3.8 3.5-3.8 1.2 0 2.4.6 2.8 1.8v-4.1h1v9.7h-1v-1.6c-.4 1.2-1.6 1.8-2.8 1.8-1.8.1-3.5-1.2-3.5-3.8zm6.3 0c0-1.8-1.1-2.9-2.7-2.9s-2.6 1.1-2.6 2.9 1.1 2.9 2.7 2.9c1.6.1 2.6-1 2.6-2.9zm3.2-5.6h1l-.1 4.2h-.8l-.1-4.2zm2.7 5.6c0-2.3 1.5-3.8 3.7-3.8 2.3 0 3.7 1.6 3.5 4H94c0 1.7 1.1 2.7 2.7 2.7 1.2 0 1.9-.4 2.4-1.3l.9.2c-.6 1.3-1.7 1.9-3.3 1.9-2.2.2-3.7-1.4-3.7-3.7zm6.2-.6c-.1-1.4-1-2.3-2.5-2.3-1.4 0-2.5.9-2.6 2.3h5.1z"/><use xlink:href="#E"/><path d="M111.5 248.7h-1v-.8h1v-.3c0-1.5.8-2.3 2.4-2.3.4 0 .8 0 1.2.1l-.2.8c-.3-.1-.5-.1-.8-.1-1 0-1.5.5-1.5 1.4v.3h2.2v.8h-2.2v6.5h-1l-.1-6.4z"/><use xlink:href="#C" x="71.7"/><use xlink:href="#E" x="23"/><use xlink:href="#F"/><path d="M139 253.5l.9-.3c.4.8 1.3 1.2 2.5 1.2 1.3 0 2.1-.5 2.1-1.3 0-1.9-5.1-.4-5.1-3.4 0-1.2 1.2-2 2.9-2 1.3 0 2.5.6 3 1.6l-.9.3c-.4-.6-1.2-1-2.1-1-1.2 0-1.9.4-1.9 1.2 0 1.9 5.1.4 5.1 3.3 0 1.3-1.2 2.2-3.1 2.2-1.5 0-2.8-.7-3.4-1.8z"/><use xlink:href="#G"/><use xlink:href="#H"/><path d="M168.5 251.5c0-2.2 1.5-3.8 3.6-3.8 1.7 0 2.8.8 3.3 2.3l-.9.2c-.4-1.1-1.2-1.7-2.4-1.7-1.5 0-2.6 1.2-2.6 2.9s1.1 2.9 2.6 2.9c1.1 0 2-.6 2.4-1.7l.9.2c-.5 1.5-1.7 2.3-3.3 2.3-2.1.3-3.6-1.3-3.6-3.6zm9-5.3c0-.4.3-.6.6-.6s.6.2.6.6-.3.6-.6.6a.65.65 0 0 1-.6-.6zm.1 1.7h1v7.3h-1v-7.3zm3.2 3.6c0-2.6 1.6-3.8 3.5-3.8 1.2 0 2.3.6 2.8 1.8v-1.7h1v7.3h-1v-1.6c-.4 1.2-1.6 1.8-2.8 1.8-1.8.1-3.5-1.2-3.5-3.8zm6.3 0c0-1.8-1.1-2.9-2.7-2.9s-2.6 1.1-2.6 2.9 1.1 2.9 2.7 2.9c1.5.1 2.6-1 2.6-2.9zm3.5-6h1v9.7h-1v-9.7z"/><use xlink:href="#D" x="126.2"/><path d="M203 247.9h1v1.6c.3-1.1 1.1-1.8 2.3-1.8 1.3 0 2 .6 2.3 1.9.3-1.3 1.3-1.9 2.7-1.9 1.9 0 2.6 1.2 2.6 3.9v3.6h-1v-3.6c0-2.1-.5-3-2-3s-2.1.9-2.1 3v3.6h-1v-3.5c0-2.1-.4-3-1.9-3s-2.1 1-2.1 3.1v3.4h-1v-7.3h.2zm13 3.6c0-2.3 1.5-3.8 3.7-3.8 2.3 0 3.7 1.6 3.5 4H217c0 1.7 1.1 2.7 2.7 2.7 1.2 0 1.9-.4 2.4-1.3l.9.2c-.6 1.3-1.7 1.9-3.3 1.9-2.3.2-3.7-1.4-3.7-3.7zm6.2-.6c-.1-1.4-1-2.3-2.5-2.3-1.4 0-2.5.9-2.6 2.3h5.1z"/><use xlink:href="#E" x="123"/><use xlink:href="#F" x="100"/><path d="M243.8 247.9h1v1.3c.3-.9 1.1-1.6 2.7-1.4l-.1 1c-1.8-.3-2.5.7-2.5 2.6v3.8h-1l-.1-7.3zm4.5 3.6c0-2.3 1.5-3.8 3.7-3.8 2.3 0 3.7 1.6 3.5 4h-6.2c0 1.7 1.1 2.7 2.7 2.7 1.2 0 1.9-.4 2.4-1.3l.9.2c-.6 1.3-1.7 1.9-3.3 1.9-2.3.2-3.7-1.4-3.7-3.7zm6.2-.6c-.1-1.4-1-2.3-2.5-2.3-1.4 0-2.5.9-2.6 2.3h5.1z"/><use xlink:href="#G" x="105.7"/><path d="M265.3 247.9h1v1.6c.4-1.2 1.5-1.8 2.8-1.8 1.7 0 3.5 1.2 3.5 3.8s-1.7 3.8-3.5 3.8c-1.3 0-2.4-.6-2.8-1.8v4.1h-1v-9.7zm6.3 3.6c0-1.8-1-2.9-2.6-2.9s-2.7 1.1-2.7 2.9 1.1 2.9 2.6 2.9c1.6 0 2.7-1.1 2.7-2.9z"/><use xlink:href="#H" x="115.1"/><use xlink:href="#E" x="181.6"/><use xlink:href="#G" x="141"/><use xlink:href="#B" x="279.8"/><path d="M311.1 253.6v1.6h-1v-9.7h1v4.1c.5-1.2 1.6-1.8 2.8-1.8 1.8 0 3.5 1.2 3.5 3.8s-1.7 3.8-3.5 3.8c-1.3 0-2.4-.6-2.8-1.8zm5.2-2.1c0-1.8-1.1-2.9-2.6-2.9-1.6 0-2.6 1.1-2.6 2.9s1.1 2.9 2.7 2.9c1.5.1 2.5-1 2.5-2.9zm3.2-6h1v9.7h-1v-9.7z"/><use xlink:href="#D" x="255.1"/><path d="M355.4 199.6a5.27 5.27 0 1 1-10.6 0c0-3 2.3-5.3 5.3-5.3a5.27 5.27 0 0 1 5.3 5.3zm-.9 0c0-2.4-1.9-4.4-4.3-4.4s-4.3 2-4.3 4.4 1.9 4.4 4.3 4.4 4.3-1.9 4.3-4.4zm-3.5.9l1.3 1.8H351l-1.2-1.7h-.3v1.7h-1.2v-5.1h2.1c1.2 0 1.7.8 1.7 1.7.1.9-.4 1.4-1.1 1.6zm-1.5-2.4v1.5h.8c.6 0 .7-.4.7-.8 0-.3-.2-.7-.7-.7h-.8z"/></g><defs ><path id="B" d="M20.5 251.5c0-2.6 1.6-3.8 3.5-3.8 1.2 0 2.3.6 2.8 1.8v-1.7h1v7.3h-1v-1.6c-.4 1.2-1.6 1.8-2.8 1.8-1.8.1-3.5-1.2-3.5-3.8zm6.3 0c0-1.8-1.1-2.9-2.7-2.9s-2.6 1.1-2.6 2.9 1.1 2.9 2.7 2.9c1.6.1 2.6-1 2.6-2.9z"/><path id="C" d="M43.8 251.5c0-2.6 1.6-3.8 3.5-3.8 1.2 0 2.3.6 2.8 1.8v-1.7h1v7.3h-1v-1.6c-.4 1.2-1.6 1.8-2.8 1.8-1.9.1-3.5-1.2-3.5-3.8zm6.3 0c0-1.8-1.1-2.9-2.7-2.9s-2.6 1.1-2.6 2.9 1.1 2.9 2.7 2.9c1.5.1 2.6-1 2.6-2.9z"/><path id="D" d="M67.5 251.5c0-2.3 1.5-3.8 3.7-3.8 2.3 0 3.7 1.6 3.5 4h-6.2c0 1.7 1.1 2.7 2.7 2.7 1.2 0 1.9-.4 2.4-1.3l.9.2c-.6 1.3-1.7 1.9-3.3 1.9-2.2.2-3.7-1.4-3.7-3.7zm6.2-.6c-.1-1.4-1-2.3-2.5-2.3-1.4 0-2.5.9-2.6 2.3h5.1z"/><path id="E" d="M102.3 247.9h1v1.6c.3-1 1.2-1.7 2.5-1.7 2.1 0 3.1 1.2 3.1 3.5v3.9h-1v-3.9c0-1.8-.7-2.7-2.3-2.7s-2.3 1.1-2.3 2.9v3.6h-1v-7.2z"/><path id="F" d="M134.4 252.2v-3.5h-1.1v-.8h1.1v-1.4l1-.2v1.6h2.3v.8h-2.3v3.4c0 1.7.4 2.3 1.7 2.3.1 0 .3 0 .6-.1l.1.8c-.3.1-.6.1-.8.1-1.8.1-2.6-.7-2.6-3z"/><path id="G" d="M151.2 253.5l.9-.3c.4.8 1.3 1.2 2.5 1.2 1.3 0 2.1-.5 2.1-1.3 0-1.9-5.1-.4-5.1-3.4 0-1.2 1.2-2 2.9-2 1.3 0 2.5.6 3 1.6l-.9.3c-.4-.6-1.2-1-2.1-1-1.2 0-1.9.4-1.9 1.2 0 1.9 5.1.4 5.1 3.3 0 1.3-1.2 2.2-3.1 2.2-1.6 0-2.9-.7-3.4-1.8z"/><path id="H" d="M159.4 251.5c0-2.6 1.8-3.8 3.6-3.8s3.7 1.2 3.7 3.8c0 2.7-1.8 3.8-3.6 3.8-1.9.1-3.7-1.1-3.7-3.8zm6.3 0c0-1.8-1.1-2.9-2.7-2.9s-2.6 1.1-2.6 2.9 1.1 2.9 2.7 2.9c1.5.1 2.6-1 2.6-2.9z"/></defs></svg>